<mxfile host="app.diagrams.net" modified="2023-10-15T15:38:23.568Z" agent="Mozilla/5.0 (Windows NT 10.0; Win64; x64) AppleWebKit/537.36 (KHTML, like Gecko) Chrome/118.0.0.0 Safari/537.36" etag="trf4WzoiF8DSeuvgc6DA" version="22.0.4" type="github">
  <diagram name="Страница — 1" id="KdkdapdGVcpsQh96Dx33">
    <mxGraphModel dx="1702" dy="445" grid="1" gridSize="10" guides="1" tooltips="1" connect="1" arrows="1" fold="1" page="1" pageScale="1" pageWidth="827" pageHeight="1169" math="0" shadow="0">
      <root>
        <mxCell id="0" />
        <mxCell id="1" parent="0" />
        <mxCell id="Tn2TDSUFa4dQiJqFz2St-1" value="" style="group" vertex="1" connectable="0" parent="1">
          <mxGeometry x="90" y="90" width="120" height="80" as="geometry" />
        </mxCell>
        <mxCell id="Tn2TDSUFa4dQiJqFz2St-2" value="" style="rounded=0;whiteSpace=wrap;html=1;" vertex="1" parent="Tn2TDSUFa4dQiJqFz2St-1">
          <mxGeometry width="120" height="80" as="geometry" />
        </mxCell>
        <mxCell id="Tn2TDSUFa4dQiJqFz2St-3" value="" style="endArrow=none;html=1;rounded=0;entryX=1;entryY=0.75;entryDx=0;entryDy=0;" edge="1" parent="Tn2TDSUFa4dQiJqFz2St-1" target="Tn2TDSUFa4dQiJqFz2St-2">
          <mxGeometry width="50" height="50" relative="1" as="geometry">
            <mxPoint y="60" as="sourcePoint" />
            <mxPoint x="50" y="10" as="targetPoint" />
          </mxGeometry>
        </mxCell>
        <mxCell id="Tn2TDSUFa4dQiJqFz2St-4" value="" style="endArrow=none;html=1;rounded=0;" edge="1" parent="Tn2TDSUFa4dQiJqFz2St-1">
          <mxGeometry width="50" height="50" relative="1" as="geometry">
            <mxPoint x="60" y="80" as="sourcePoint" />
            <mxPoint x="60" y="60" as="targetPoint" />
          </mxGeometry>
        </mxCell>
        <mxCell id="Tn2TDSUFa4dQiJqFz2St-5" value="" style="endArrow=none;html=1;rounded=0;entryX=0.081;entryY=-0.002;entryDx=0;entryDy=0;entryPerimeter=0;" edge="1" parent="Tn2TDSUFa4dQiJqFz2St-1" target="Tn2TDSUFa4dQiJqFz2St-2">
          <mxGeometry width="50" height="50" relative="1" as="geometry">
            <mxPoint y="10" as="sourcePoint" />
            <mxPoint x="50" y="-40" as="targetPoint" />
          </mxGeometry>
        </mxCell>
        <mxCell id="Tn2TDSUFa4dQiJqFz2St-6" value="0р." style="text;html=1;strokeColor=none;fillColor=none;align=center;verticalAlign=middle;whiteSpace=wrap;rounded=0;" vertex="1" parent="Tn2TDSUFa4dQiJqFz2St-1">
          <mxGeometry width="30" height="10" as="geometry" />
        </mxCell>
        <mxCell id="Tn2TDSUFa4dQiJqFz2St-9" value="А 4.1.1" style="text;html=1;strokeColor=none;fillColor=none;align=center;verticalAlign=middle;whiteSpace=wrap;rounded=0;" vertex="1" parent="Tn2TDSUFa4dQiJqFz2St-1">
          <mxGeometry y="60" width="60" height="20" as="geometry" />
        </mxCell>
        <mxCell id="Tn2TDSUFa4dQiJqFz2St-10" value="Прием запросов на поддержку" style="text;html=1;strokeColor=none;fillColor=none;align=center;verticalAlign=middle;whiteSpace=wrap;rounded=0;" vertex="1" parent="Tn2TDSUFa4dQiJqFz2St-1">
          <mxGeometry y="10" width="120" height="50" as="geometry" />
        </mxCell>
        <mxCell id="Tn2TDSUFa4dQiJqFz2St-11" value="" style="group" vertex="1" connectable="0" parent="1">
          <mxGeometry x="90" y="200" width="50" height="40" as="geometry" />
        </mxCell>
        <mxCell id="Tn2TDSUFa4dQiJqFz2St-12" value="" style="rounded=0;whiteSpace=wrap;html=1;" vertex="1" parent="Tn2TDSUFa4dQiJqFz2St-11">
          <mxGeometry width="50" height="40" as="geometry" />
        </mxCell>
        <mxCell id="Tn2TDSUFa4dQiJqFz2St-13" value="" style="endArrow=none;html=1;rounded=0;entryX=0.25;entryY=0;entryDx=0;entryDy=0;exitX=0.25;exitY=1;exitDx=0;exitDy=0;" edge="1" parent="Tn2TDSUFa4dQiJqFz2St-11" source="Tn2TDSUFa4dQiJqFz2St-12" target="Tn2TDSUFa4dQiJqFz2St-12">
          <mxGeometry width="50" height="50" relative="1" as="geometry">
            <mxPoint x="10" y="40" as="sourcePoint" />
            <mxPoint x="20" y="10" as="targetPoint" />
          </mxGeometry>
        </mxCell>
        <mxCell id="Tn2TDSUFa4dQiJqFz2St-14" value="&lt;font style=&quot;font-size: 14px;&quot;&gt;&lt;b&gt;О&lt;/b&gt;&lt;/font&gt;" style="text;html=1;strokeColor=none;fillColor=none;align=center;verticalAlign=middle;whiteSpace=wrap;rounded=0;" vertex="1" parent="Tn2TDSUFa4dQiJqFz2St-11">
          <mxGeometry x="10" y="5" width="30" height="30" as="geometry" />
        </mxCell>
        <mxCell id="Tn2TDSUFa4dQiJqFz2St-15" value="" style="endArrow=none;html=1;rounded=0;entryX=0.75;entryY=0;entryDx=0;entryDy=0;exitX=0.75;exitY=1;exitDx=0;exitDy=0;" edge="1" parent="Tn2TDSUFa4dQiJqFz2St-11" source="Tn2TDSUFa4dQiJqFz2St-12" target="Tn2TDSUFa4dQiJqFz2St-12">
          <mxGeometry width="50" height="50" relative="1" as="geometry">
            <mxPoint x="40" y="40" as="sourcePoint" />
            <mxPoint x="90" y="-10" as="targetPoint" />
          </mxGeometry>
        </mxCell>
        <mxCell id="Tn2TDSUFa4dQiJqFz2St-16" value="" style="group" vertex="1" connectable="0" parent="1">
          <mxGeometry x="170" y="200" width="120" height="80" as="geometry" />
        </mxCell>
        <mxCell id="Tn2TDSUFa4dQiJqFz2St-17" value="" style="rounded=0;whiteSpace=wrap;html=1;" vertex="1" parent="Tn2TDSUFa4dQiJqFz2St-16">
          <mxGeometry width="120" height="80" as="geometry" />
        </mxCell>
        <mxCell id="Tn2TDSUFa4dQiJqFz2St-18" value="" style="endArrow=none;html=1;rounded=0;entryX=1;entryY=0.75;entryDx=0;entryDy=0;" edge="1" parent="Tn2TDSUFa4dQiJqFz2St-16" target="Tn2TDSUFa4dQiJqFz2St-17">
          <mxGeometry width="50" height="50" relative="1" as="geometry">
            <mxPoint y="60" as="sourcePoint" />
            <mxPoint x="50" y="10" as="targetPoint" />
          </mxGeometry>
        </mxCell>
        <mxCell id="Tn2TDSUFa4dQiJqFz2St-19" value="" style="endArrow=none;html=1;rounded=0;" edge="1" parent="Tn2TDSUFa4dQiJqFz2St-16">
          <mxGeometry width="50" height="50" relative="1" as="geometry">
            <mxPoint x="60" y="80" as="sourcePoint" />
            <mxPoint x="60" y="60" as="targetPoint" />
          </mxGeometry>
        </mxCell>
        <mxCell id="Tn2TDSUFa4dQiJqFz2St-20" value="" style="endArrow=none;html=1;rounded=0;entryX=0.081;entryY=-0.002;entryDx=0;entryDy=0;entryPerimeter=0;" edge="1" parent="Tn2TDSUFa4dQiJqFz2St-16" target="Tn2TDSUFa4dQiJqFz2St-17">
          <mxGeometry width="50" height="50" relative="1" as="geometry">
            <mxPoint y="10" as="sourcePoint" />
            <mxPoint x="50" y="-40" as="targetPoint" />
          </mxGeometry>
        </mxCell>
        <mxCell id="Tn2TDSUFa4dQiJqFz2St-21" value="0р." style="text;html=1;strokeColor=none;fillColor=none;align=center;verticalAlign=middle;whiteSpace=wrap;rounded=0;" vertex="1" parent="Tn2TDSUFa4dQiJqFz2St-16">
          <mxGeometry width="30" height="10" as="geometry" />
        </mxCell>
        <mxCell id="Tn2TDSUFa4dQiJqFz2St-22" value="А 4.1.2" style="text;html=1;strokeColor=none;fillColor=none;align=center;verticalAlign=middle;whiteSpace=wrap;rounded=0;" vertex="1" parent="Tn2TDSUFa4dQiJqFz2St-16">
          <mxGeometry y="60" width="60" height="20" as="geometry" />
        </mxCell>
        <mxCell id="Tn2TDSUFa4dQiJqFz2St-23" value="Анализ проблемы" style="text;html=1;strokeColor=none;fillColor=none;align=center;verticalAlign=middle;whiteSpace=wrap;rounded=0;" vertex="1" parent="Tn2TDSUFa4dQiJqFz2St-16">
          <mxGeometry y="10" width="120" height="50" as="geometry" />
        </mxCell>
        <mxCell id="Tn2TDSUFa4dQiJqFz2St-24" value="" style="group" vertex="1" connectable="0" parent="1">
          <mxGeometry x="170" y="320" width="120" height="80" as="geometry" />
        </mxCell>
        <mxCell id="Tn2TDSUFa4dQiJqFz2St-25" value="" style="rounded=0;whiteSpace=wrap;html=1;" vertex="1" parent="Tn2TDSUFa4dQiJqFz2St-24">
          <mxGeometry width="120" height="80" as="geometry" />
        </mxCell>
        <mxCell id="Tn2TDSUFa4dQiJqFz2St-26" value="" style="endArrow=none;html=1;rounded=0;entryX=1;entryY=0.75;entryDx=0;entryDy=0;" edge="1" parent="Tn2TDSUFa4dQiJqFz2St-24" target="Tn2TDSUFa4dQiJqFz2St-25">
          <mxGeometry width="50" height="50" relative="1" as="geometry">
            <mxPoint y="60" as="sourcePoint" />
            <mxPoint x="50" y="10" as="targetPoint" />
          </mxGeometry>
        </mxCell>
        <mxCell id="Tn2TDSUFa4dQiJqFz2St-27" value="" style="endArrow=none;html=1;rounded=0;" edge="1" parent="Tn2TDSUFa4dQiJqFz2St-24">
          <mxGeometry width="50" height="50" relative="1" as="geometry">
            <mxPoint x="60" y="80" as="sourcePoint" />
            <mxPoint x="60" y="60" as="targetPoint" />
          </mxGeometry>
        </mxCell>
        <mxCell id="Tn2TDSUFa4dQiJqFz2St-28" value="" style="endArrow=none;html=1;rounded=0;entryX=0.081;entryY=-0.002;entryDx=0;entryDy=0;entryPerimeter=0;" edge="1" parent="Tn2TDSUFa4dQiJqFz2St-24" target="Tn2TDSUFa4dQiJqFz2St-25">
          <mxGeometry width="50" height="50" relative="1" as="geometry">
            <mxPoint y="10" as="sourcePoint" />
            <mxPoint x="50" y="-40" as="targetPoint" />
          </mxGeometry>
        </mxCell>
        <mxCell id="Tn2TDSUFa4dQiJqFz2St-29" value="0р." style="text;html=1;strokeColor=none;fillColor=none;align=center;verticalAlign=middle;whiteSpace=wrap;rounded=0;" vertex="1" parent="Tn2TDSUFa4dQiJqFz2St-24">
          <mxGeometry width="30" height="10" as="geometry" />
        </mxCell>
        <mxCell id="Tn2TDSUFa4dQiJqFz2St-30" value="А 4.1.3" style="text;html=1;strokeColor=none;fillColor=none;align=center;verticalAlign=middle;whiteSpace=wrap;rounded=0;" vertex="1" parent="Tn2TDSUFa4dQiJqFz2St-24">
          <mxGeometry y="60" width="60" height="20" as="geometry" />
        </mxCell>
        <mxCell id="Tn2TDSUFa4dQiJqFz2St-31" value="Решение проблемы" style="text;html=1;strokeColor=none;fillColor=none;align=center;verticalAlign=middle;whiteSpace=wrap;rounded=0;" vertex="1" parent="Tn2TDSUFa4dQiJqFz2St-24">
          <mxGeometry y="10" width="120" height="50" as="geometry" />
        </mxCell>
        <mxCell id="Tn2TDSUFa4dQiJqFz2St-32" value="" style="group" vertex="1" connectable="0" parent="1">
          <mxGeometry x="390" y="420" width="120" height="80" as="geometry" />
        </mxCell>
        <mxCell id="Tn2TDSUFa4dQiJqFz2St-33" value="" style="rounded=0;whiteSpace=wrap;html=1;" vertex="1" parent="Tn2TDSUFa4dQiJqFz2St-32">
          <mxGeometry width="120" height="80" as="geometry" />
        </mxCell>
        <mxCell id="Tn2TDSUFa4dQiJqFz2St-34" value="" style="endArrow=none;html=1;rounded=0;entryX=1;entryY=0.75;entryDx=0;entryDy=0;" edge="1" parent="Tn2TDSUFa4dQiJqFz2St-32" target="Tn2TDSUFa4dQiJqFz2St-33">
          <mxGeometry width="50" height="50" relative="1" as="geometry">
            <mxPoint y="60" as="sourcePoint" />
            <mxPoint x="50" y="10" as="targetPoint" />
          </mxGeometry>
        </mxCell>
        <mxCell id="Tn2TDSUFa4dQiJqFz2St-35" value="" style="endArrow=none;html=1;rounded=0;" edge="1" parent="Tn2TDSUFa4dQiJqFz2St-32">
          <mxGeometry width="50" height="50" relative="1" as="geometry">
            <mxPoint x="60" y="80" as="sourcePoint" />
            <mxPoint x="60" y="60" as="targetPoint" />
          </mxGeometry>
        </mxCell>
        <mxCell id="Tn2TDSUFa4dQiJqFz2St-36" value="" style="endArrow=none;html=1;rounded=0;entryX=0.081;entryY=-0.002;entryDx=0;entryDy=0;entryPerimeter=0;" edge="1" parent="Tn2TDSUFa4dQiJqFz2St-32" target="Tn2TDSUFa4dQiJqFz2St-33">
          <mxGeometry width="50" height="50" relative="1" as="geometry">
            <mxPoint y="10" as="sourcePoint" />
            <mxPoint x="50" y="-40" as="targetPoint" />
          </mxGeometry>
        </mxCell>
        <mxCell id="Tn2TDSUFa4dQiJqFz2St-37" value="0р." style="text;html=1;strokeColor=none;fillColor=none;align=center;verticalAlign=middle;whiteSpace=wrap;rounded=0;" vertex="1" parent="Tn2TDSUFa4dQiJqFz2St-32">
          <mxGeometry width="30" height="10" as="geometry" />
        </mxCell>
        <mxCell id="Tn2TDSUFa4dQiJqFz2St-38" value="А 4.1.7" style="text;html=1;strokeColor=none;fillColor=none;align=center;verticalAlign=middle;whiteSpace=wrap;rounded=0;" vertex="1" parent="Tn2TDSUFa4dQiJqFz2St-32">
          <mxGeometry y="60" width="60" height="20" as="geometry" />
        </mxCell>
        <mxCell id="Tn2TDSUFa4dQiJqFz2St-39" value="Тестирование решения" style="text;html=1;strokeColor=none;fillColor=none;align=center;verticalAlign=middle;whiteSpace=wrap;rounded=0;" vertex="1" parent="Tn2TDSUFa4dQiJqFz2St-32">
          <mxGeometry y="10" width="120" height="50" as="geometry" />
        </mxCell>
        <mxCell id="Tn2TDSUFa4dQiJqFz2St-40" value="" style="group" vertex="1" connectable="0" parent="1">
          <mxGeometry x="430" y="30" width="120" height="80" as="geometry" />
        </mxCell>
        <mxCell id="Tn2TDSUFa4dQiJqFz2St-41" value="" style="rounded=0;whiteSpace=wrap;html=1;" vertex="1" parent="Tn2TDSUFa4dQiJqFz2St-40">
          <mxGeometry width="120" height="80" as="geometry" />
        </mxCell>
        <mxCell id="Tn2TDSUFa4dQiJqFz2St-42" value="" style="endArrow=none;html=1;rounded=0;entryX=1;entryY=0.75;entryDx=0;entryDy=0;" edge="1" parent="Tn2TDSUFa4dQiJqFz2St-40" target="Tn2TDSUFa4dQiJqFz2St-41">
          <mxGeometry width="50" height="50" relative="1" as="geometry">
            <mxPoint y="60" as="sourcePoint" />
            <mxPoint x="50" y="10" as="targetPoint" />
          </mxGeometry>
        </mxCell>
        <mxCell id="Tn2TDSUFa4dQiJqFz2St-43" value="" style="endArrow=none;html=1;rounded=0;" edge="1" parent="Tn2TDSUFa4dQiJqFz2St-40">
          <mxGeometry width="50" height="50" relative="1" as="geometry">
            <mxPoint x="60" y="80" as="sourcePoint" />
            <mxPoint x="60" y="60" as="targetPoint" />
          </mxGeometry>
        </mxCell>
        <mxCell id="Tn2TDSUFa4dQiJqFz2St-44" value="" style="endArrow=none;html=1;rounded=0;entryX=0.081;entryY=-0.002;entryDx=0;entryDy=0;entryPerimeter=0;" edge="1" parent="Tn2TDSUFa4dQiJqFz2St-40" target="Tn2TDSUFa4dQiJqFz2St-41">
          <mxGeometry width="50" height="50" relative="1" as="geometry">
            <mxPoint y="10" as="sourcePoint" />
            <mxPoint x="50" y="-40" as="targetPoint" />
          </mxGeometry>
        </mxCell>
        <mxCell id="Tn2TDSUFa4dQiJqFz2St-45" value="0р." style="text;html=1;strokeColor=none;fillColor=none;align=center;verticalAlign=middle;whiteSpace=wrap;rounded=0;" vertex="1" parent="Tn2TDSUFa4dQiJqFz2St-40">
          <mxGeometry width="30" height="10" as="geometry" />
        </mxCell>
        <mxCell id="Tn2TDSUFa4dQiJqFz2St-46" value="А 4.1.4" style="text;html=1;strokeColor=none;fillColor=none;align=center;verticalAlign=middle;whiteSpace=wrap;rounded=0;" vertex="1" parent="Tn2TDSUFa4dQiJqFz2St-40">
          <mxGeometry y="60" width="60" height="20" as="geometry" />
        </mxCell>
        <mxCell id="Tn2TDSUFa4dQiJqFz2St-47" value="Диагностика проблемы" style="text;html=1;strokeColor=none;fillColor=none;align=center;verticalAlign=middle;whiteSpace=wrap;rounded=0;" vertex="1" parent="Tn2TDSUFa4dQiJqFz2St-40">
          <mxGeometry y="10" width="120" height="50" as="geometry" />
        </mxCell>
        <mxCell id="Tn2TDSUFa4dQiJqFz2St-48" style="edgeStyle=orthogonalEdgeStyle;rounded=0;orthogonalLoop=1;jettySize=auto;html=1;entryX=0;entryY=0.5;entryDx=0;entryDy=0;" edge="1" parent="1" source="Tn2TDSUFa4dQiJqFz2St-12" target="Tn2TDSUFa4dQiJqFz2St-23">
          <mxGeometry relative="1" as="geometry" />
        </mxCell>
        <mxCell id="Tn2TDSUFa4dQiJqFz2St-51" value="" style="endArrow=classic;html=1;rounded=0;entryX=0;entryY=0.25;entryDx=0;entryDy=0;" edge="1" parent="1" target="Tn2TDSUFa4dQiJqFz2St-10">
          <mxGeometry width="50" height="50" relative="1" as="geometry">
            <mxPoint x="-20" y="113" as="sourcePoint" />
            <mxPoint x="50" y="60" as="targetPoint" />
          </mxGeometry>
        </mxCell>
        <mxCell id="Tn2TDSUFa4dQiJqFz2St-52" value="Выпуск&lt;br&gt;обновлений" style="edgeLabel;html=1;align=center;verticalAlign=middle;resizable=0;points=[];" vertex="1" connectable="0" parent="Tn2TDSUFa4dQiJqFz2St-51">
          <mxGeometry x="-0.5856" y="2" relative="1" as="geometry">
            <mxPoint x="24" y="-16" as="offset" />
          </mxGeometry>
        </mxCell>
        <mxCell id="Tn2TDSUFa4dQiJqFz2St-53" value="" style="endArrow=classic;html=1;rounded=0;entryX=0.001;entryY=0.779;entryDx=0;entryDy=0;entryPerimeter=0;" edge="1" parent="1" target="Tn2TDSUFa4dQiJqFz2St-10">
          <mxGeometry width="50" height="50" relative="1" as="geometry">
            <mxPoint x="-20" y="140" as="sourcePoint" />
            <mxPoint x="20" y="130" as="targetPoint" />
          </mxGeometry>
        </mxCell>
        <mxCell id="Tn2TDSUFa4dQiJqFz2St-54" value="&lt;font style=&quot;font-size: 10px;&quot;&gt;Результаты анализа&lt;br&gt;работы приложения&lt;/font&gt;" style="edgeLabel;html=1;align=center;verticalAlign=middle;resizable=0;points=[];" vertex="1" connectable="0" parent="Tn2TDSUFa4dQiJqFz2St-53">
          <mxGeometry x="-0.2775" y="1" relative="1" as="geometry">
            <mxPoint x="15" y="16" as="offset" />
          </mxGeometry>
        </mxCell>
        <mxCell id="Tn2TDSUFa4dQiJqFz2St-55" value="" style="group" vertex="1" connectable="0" parent="1">
          <mxGeometry x="330" y="110" width="50" height="40" as="geometry" />
        </mxCell>
        <mxCell id="Tn2TDSUFa4dQiJqFz2St-56" value="" style="rounded=0;whiteSpace=wrap;html=1;" vertex="1" parent="Tn2TDSUFa4dQiJqFz2St-55">
          <mxGeometry width="50" height="40" as="geometry" />
        </mxCell>
        <mxCell id="Tn2TDSUFa4dQiJqFz2St-57" value="" style="endArrow=none;html=1;rounded=0;entryX=0.25;entryY=0;entryDx=0;entryDy=0;exitX=0.25;exitY=1;exitDx=0;exitDy=0;" edge="1" parent="Tn2TDSUFa4dQiJqFz2St-55" source="Tn2TDSUFa4dQiJqFz2St-56" target="Tn2TDSUFa4dQiJqFz2St-56">
          <mxGeometry width="50" height="50" relative="1" as="geometry">
            <mxPoint x="10" y="40" as="sourcePoint" />
            <mxPoint x="20" y="10" as="targetPoint" />
          </mxGeometry>
        </mxCell>
        <mxCell id="Tn2TDSUFa4dQiJqFz2St-58" value="&lt;font style=&quot;font-size: 14px;&quot;&gt;&lt;b&gt;&amp;amp;&lt;/b&gt;&lt;/font&gt;" style="text;html=1;strokeColor=none;fillColor=none;align=center;verticalAlign=middle;whiteSpace=wrap;rounded=0;" vertex="1" parent="Tn2TDSUFa4dQiJqFz2St-55">
          <mxGeometry x="10" y="5" width="30" height="30" as="geometry" />
        </mxCell>
        <mxCell id="Tn2TDSUFa4dQiJqFz2St-60" style="edgeStyle=orthogonalEdgeStyle;rounded=0;orthogonalLoop=1;jettySize=auto;html=1;exitX=1;exitY=0.5;exitDx=0;exitDy=0;entryX=0;entryY=0.5;entryDx=0;entryDy=0;" edge="1" parent="1" source="Tn2TDSUFa4dQiJqFz2St-31" target="Tn2TDSUFa4dQiJqFz2St-56">
          <mxGeometry relative="1" as="geometry" />
        </mxCell>
        <mxCell id="Tn2TDSUFa4dQiJqFz2St-62" style="edgeStyle=orthogonalEdgeStyle;rounded=0;orthogonalLoop=1;jettySize=auto;html=1;exitX=1;exitY=0.5;exitDx=0;exitDy=0;entryX=0;entryY=0.5;entryDx=0;entryDy=0;" edge="1" parent="1" source="Tn2TDSUFa4dQiJqFz2St-56" target="Tn2TDSUFa4dQiJqFz2St-47">
          <mxGeometry relative="1" as="geometry" />
        </mxCell>
        <mxCell id="Tn2TDSUFa4dQiJqFz2St-64" value="" style="group" vertex="1" connectable="0" parent="1">
          <mxGeometry x="465" y="150" width="50" height="40" as="geometry" />
        </mxCell>
        <mxCell id="Tn2TDSUFa4dQiJqFz2St-65" value="" style="rounded=0;whiteSpace=wrap;html=1;" vertex="1" parent="Tn2TDSUFa4dQiJqFz2St-64">
          <mxGeometry width="50" height="40" as="geometry" />
        </mxCell>
        <mxCell id="Tn2TDSUFa4dQiJqFz2St-66" value="" style="endArrow=none;html=1;rounded=0;entryX=0.25;entryY=0;entryDx=0;entryDy=0;exitX=0.25;exitY=1;exitDx=0;exitDy=0;" edge="1" parent="Tn2TDSUFa4dQiJqFz2St-64" source="Tn2TDSUFa4dQiJqFz2St-65" target="Tn2TDSUFa4dQiJqFz2St-65">
          <mxGeometry width="50" height="50" relative="1" as="geometry">
            <mxPoint x="10" y="40" as="sourcePoint" />
            <mxPoint x="20" y="10" as="targetPoint" />
          </mxGeometry>
        </mxCell>
        <mxCell id="Tn2TDSUFa4dQiJqFz2St-67" value="&lt;font style=&quot;font-size: 14px;&quot;&gt;&lt;b&gt;Х&lt;/b&gt;&lt;/font&gt;" style="text;html=1;strokeColor=none;fillColor=none;align=center;verticalAlign=middle;whiteSpace=wrap;rounded=0;" vertex="1" parent="Tn2TDSUFa4dQiJqFz2St-64">
          <mxGeometry x="10" y="5" width="30" height="30" as="geometry" />
        </mxCell>
        <mxCell id="Tn2TDSUFa4dQiJqFz2St-68" style="edgeStyle=orthogonalEdgeStyle;rounded=0;orthogonalLoop=1;jettySize=auto;html=1;entryX=0.5;entryY=0;entryDx=0;entryDy=0;" edge="1" parent="1" source="Tn2TDSUFa4dQiJqFz2St-41" target="Tn2TDSUFa4dQiJqFz2St-65">
          <mxGeometry relative="1" as="geometry" />
        </mxCell>
        <mxCell id="Tn2TDSUFa4dQiJqFz2St-70" value="" style="group" vertex="1" connectable="0" parent="1">
          <mxGeometry x="350" y="230" width="120" height="80" as="geometry" />
        </mxCell>
        <mxCell id="Tn2TDSUFa4dQiJqFz2St-71" value="" style="rounded=0;whiteSpace=wrap;html=1;" vertex="1" parent="Tn2TDSUFa4dQiJqFz2St-70">
          <mxGeometry width="120" height="80" as="geometry" />
        </mxCell>
        <mxCell id="Tn2TDSUFa4dQiJqFz2St-72" value="" style="endArrow=none;html=1;rounded=0;entryX=1;entryY=0.75;entryDx=0;entryDy=0;" edge="1" parent="Tn2TDSUFa4dQiJqFz2St-70" target="Tn2TDSUFa4dQiJqFz2St-71">
          <mxGeometry width="50" height="50" relative="1" as="geometry">
            <mxPoint y="60" as="sourcePoint" />
            <mxPoint x="50" y="10" as="targetPoint" />
          </mxGeometry>
        </mxCell>
        <mxCell id="Tn2TDSUFa4dQiJqFz2St-73" value="" style="endArrow=none;html=1;rounded=0;" edge="1" parent="Tn2TDSUFa4dQiJqFz2St-70">
          <mxGeometry width="50" height="50" relative="1" as="geometry">
            <mxPoint x="60" y="80" as="sourcePoint" />
            <mxPoint x="60" y="60" as="targetPoint" />
          </mxGeometry>
        </mxCell>
        <mxCell id="Tn2TDSUFa4dQiJqFz2St-74" value="" style="endArrow=none;html=1;rounded=0;entryX=0.081;entryY=-0.002;entryDx=0;entryDy=0;entryPerimeter=0;" edge="1" parent="Tn2TDSUFa4dQiJqFz2St-70" target="Tn2TDSUFa4dQiJqFz2St-71">
          <mxGeometry width="50" height="50" relative="1" as="geometry">
            <mxPoint y="10" as="sourcePoint" />
            <mxPoint x="50" y="-40" as="targetPoint" />
          </mxGeometry>
        </mxCell>
        <mxCell id="Tn2TDSUFa4dQiJqFz2St-75" value="0р." style="text;html=1;strokeColor=none;fillColor=none;align=center;verticalAlign=middle;whiteSpace=wrap;rounded=0;" vertex="1" parent="Tn2TDSUFa4dQiJqFz2St-70">
          <mxGeometry width="30" height="10" as="geometry" />
        </mxCell>
        <mxCell id="Tn2TDSUFa4dQiJqFz2St-77" value="Поиск решения" style="text;html=1;strokeColor=none;fillColor=none;align=center;verticalAlign=middle;whiteSpace=wrap;rounded=0;" vertex="1" parent="Tn2TDSUFa4dQiJqFz2St-70">
          <mxGeometry y="10" width="120" height="50" as="geometry" />
        </mxCell>
        <mxCell id="Tn2TDSUFa4dQiJqFz2St-78" value="А 4.1.5" style="text;html=1;strokeColor=none;fillColor=none;align=center;verticalAlign=middle;whiteSpace=wrap;rounded=0;" vertex="1" parent="Tn2TDSUFa4dQiJqFz2St-70">
          <mxGeometry y="60" width="60" height="20" as="geometry" />
        </mxCell>
        <mxCell id="Tn2TDSUFa4dQiJqFz2St-79" value="" style="group" vertex="1" connectable="0" parent="1">
          <mxGeometry x="510" y="230" width="120" height="80" as="geometry" />
        </mxCell>
        <mxCell id="Tn2TDSUFa4dQiJqFz2St-80" value="" style="rounded=0;whiteSpace=wrap;html=1;" vertex="1" parent="Tn2TDSUFa4dQiJqFz2St-79">
          <mxGeometry width="120" height="80" as="geometry" />
        </mxCell>
        <mxCell id="Tn2TDSUFa4dQiJqFz2St-81" value="" style="endArrow=none;html=1;rounded=0;entryX=1;entryY=0.75;entryDx=0;entryDy=0;" edge="1" parent="Tn2TDSUFa4dQiJqFz2St-79" target="Tn2TDSUFa4dQiJqFz2St-80">
          <mxGeometry width="50" height="50" relative="1" as="geometry">
            <mxPoint y="60" as="sourcePoint" />
            <mxPoint x="50" y="10" as="targetPoint" />
          </mxGeometry>
        </mxCell>
        <mxCell id="Tn2TDSUFa4dQiJqFz2St-82" value="" style="endArrow=none;html=1;rounded=0;" edge="1" parent="Tn2TDSUFa4dQiJqFz2St-79">
          <mxGeometry width="50" height="50" relative="1" as="geometry">
            <mxPoint x="60" y="80" as="sourcePoint" />
            <mxPoint x="60" y="60" as="targetPoint" />
          </mxGeometry>
        </mxCell>
        <mxCell id="Tn2TDSUFa4dQiJqFz2St-83" value="" style="endArrow=none;html=1;rounded=0;entryX=0.081;entryY=-0.002;entryDx=0;entryDy=0;entryPerimeter=0;" edge="1" parent="Tn2TDSUFa4dQiJqFz2St-79" target="Tn2TDSUFa4dQiJqFz2St-80">
          <mxGeometry width="50" height="50" relative="1" as="geometry">
            <mxPoint y="10" as="sourcePoint" />
            <mxPoint x="50" y="-40" as="targetPoint" />
          </mxGeometry>
        </mxCell>
        <mxCell id="Tn2TDSUFa4dQiJqFz2St-84" value="0р." style="text;html=1;strokeColor=none;fillColor=none;align=center;verticalAlign=middle;whiteSpace=wrap;rounded=0;" vertex="1" parent="Tn2TDSUFa4dQiJqFz2St-79">
          <mxGeometry width="30" height="10" as="geometry" />
        </mxCell>
        <mxCell id="Tn2TDSUFa4dQiJqFz2St-85" value="А 4.1.6" style="text;html=1;strokeColor=none;fillColor=none;align=center;verticalAlign=middle;whiteSpace=wrap;rounded=0;" vertex="1" parent="Tn2TDSUFa4dQiJqFz2St-79">
          <mxGeometry y="60" width="60" height="20" as="geometry" />
        </mxCell>
        <mxCell id="Tn2TDSUFa4dQiJqFz2St-86" value="Разработка исправлений или рекомендаций" style="text;html=1;strokeColor=none;fillColor=none;align=center;verticalAlign=middle;whiteSpace=wrap;rounded=0;" vertex="1" parent="Tn2TDSUFa4dQiJqFz2St-79">
          <mxGeometry y="10" width="120" height="50" as="geometry" />
        </mxCell>
        <mxCell id="Tn2TDSUFa4dQiJqFz2St-87" style="edgeStyle=orthogonalEdgeStyle;rounded=0;orthogonalLoop=1;jettySize=auto;html=1;entryX=0.5;entryY=0;entryDx=0;entryDy=0;" edge="1" parent="1" source="Tn2TDSUFa4dQiJqFz2St-65" target="Tn2TDSUFa4dQiJqFz2St-71">
          <mxGeometry relative="1" as="geometry" />
        </mxCell>
        <mxCell id="Tn2TDSUFa4dQiJqFz2St-89" style="edgeStyle=orthogonalEdgeStyle;rounded=0;orthogonalLoop=1;jettySize=auto;html=1;entryX=0.5;entryY=0;entryDx=0;entryDy=0;" edge="1" parent="1" source="Tn2TDSUFa4dQiJqFz2St-65" target="Tn2TDSUFa4dQiJqFz2St-80">
          <mxGeometry relative="1" as="geometry" />
        </mxCell>
        <mxCell id="Tn2TDSUFa4dQiJqFz2St-110" value="" style="group" vertex="1" connectable="0" parent="1">
          <mxGeometry x="70" y="420" width="120" height="80" as="geometry" />
        </mxCell>
        <mxCell id="Tn2TDSUFa4dQiJqFz2St-111" value="" style="rounded=0;whiteSpace=wrap;html=1;" vertex="1" parent="Tn2TDSUFa4dQiJqFz2St-110">
          <mxGeometry width="120" height="80" as="geometry" />
        </mxCell>
        <mxCell id="Tn2TDSUFa4dQiJqFz2St-112" value="" style="endArrow=none;html=1;rounded=0;entryX=1;entryY=0.75;entryDx=0;entryDy=0;" edge="1" parent="Tn2TDSUFa4dQiJqFz2St-110" target="Tn2TDSUFa4dQiJqFz2St-111">
          <mxGeometry width="50" height="50" relative="1" as="geometry">
            <mxPoint y="60" as="sourcePoint" />
            <mxPoint x="50" y="10" as="targetPoint" />
          </mxGeometry>
        </mxCell>
        <mxCell id="Tn2TDSUFa4dQiJqFz2St-113" value="" style="endArrow=none;html=1;rounded=0;" edge="1" parent="Tn2TDSUFa4dQiJqFz2St-110">
          <mxGeometry width="50" height="50" relative="1" as="geometry">
            <mxPoint x="60" y="80" as="sourcePoint" />
            <mxPoint x="60" y="60" as="targetPoint" />
          </mxGeometry>
        </mxCell>
        <mxCell id="Tn2TDSUFa4dQiJqFz2St-114" value="" style="endArrow=none;html=1;rounded=0;entryX=0.081;entryY=-0.002;entryDx=0;entryDy=0;entryPerimeter=0;" edge="1" parent="Tn2TDSUFa4dQiJqFz2St-110" target="Tn2TDSUFa4dQiJqFz2St-111">
          <mxGeometry width="50" height="50" relative="1" as="geometry">
            <mxPoint y="10" as="sourcePoint" />
            <mxPoint x="50" y="-40" as="targetPoint" />
          </mxGeometry>
        </mxCell>
        <mxCell id="Tn2TDSUFa4dQiJqFz2St-115" value="0р." style="text;html=1;strokeColor=none;fillColor=none;align=center;verticalAlign=middle;whiteSpace=wrap;rounded=0;" vertex="1" parent="Tn2TDSUFa4dQiJqFz2St-110">
          <mxGeometry width="30" height="10" as="geometry" />
        </mxCell>
        <mxCell id="Tn2TDSUFa4dQiJqFz2St-117" value="А 4.1.9" style="text;html=1;strokeColor=none;fillColor=none;align=center;verticalAlign=middle;whiteSpace=wrap;rounded=0;" vertex="1" parent="Tn2TDSUFa4dQiJqFz2St-110">
          <mxGeometry y="60" width="60" height="20" as="geometry" />
        </mxCell>
        <mxCell id="Tn2TDSUFa4dQiJqFz2St-118" value="Документирование проблемы и решения" style="text;html=1;strokeColor=none;fillColor=none;align=center;verticalAlign=middle;whiteSpace=wrap;rounded=0;" vertex="1" parent="Tn2TDSUFa4dQiJqFz2St-110">
          <mxGeometry y="10" width="120" height="50" as="geometry" />
        </mxCell>
        <mxCell id="Tn2TDSUFa4dQiJqFz2St-119" value="" style="group" vertex="1" connectable="0" parent="1">
          <mxGeometry x="230" y="420" width="120" height="80" as="geometry" />
        </mxCell>
        <mxCell id="Tn2TDSUFa4dQiJqFz2St-120" value="" style="rounded=0;whiteSpace=wrap;html=1;" vertex="1" parent="Tn2TDSUFa4dQiJqFz2St-119">
          <mxGeometry width="120" height="80" as="geometry" />
        </mxCell>
        <mxCell id="Tn2TDSUFa4dQiJqFz2St-121" value="" style="endArrow=none;html=1;rounded=0;entryX=1;entryY=0.75;entryDx=0;entryDy=0;" edge="1" parent="Tn2TDSUFa4dQiJqFz2St-119" target="Tn2TDSUFa4dQiJqFz2St-120">
          <mxGeometry width="50" height="50" relative="1" as="geometry">
            <mxPoint y="60" as="sourcePoint" />
            <mxPoint x="50" y="10" as="targetPoint" />
          </mxGeometry>
        </mxCell>
        <mxCell id="Tn2TDSUFa4dQiJqFz2St-122" value="" style="endArrow=none;html=1;rounded=0;" edge="1" parent="Tn2TDSUFa4dQiJqFz2St-119">
          <mxGeometry width="50" height="50" relative="1" as="geometry">
            <mxPoint x="60" y="80" as="sourcePoint" />
            <mxPoint x="60" y="60" as="targetPoint" />
          </mxGeometry>
        </mxCell>
        <mxCell id="Tn2TDSUFa4dQiJqFz2St-123" value="" style="endArrow=none;html=1;rounded=0;entryX=0.081;entryY=-0.002;entryDx=0;entryDy=0;entryPerimeter=0;" edge="1" parent="Tn2TDSUFa4dQiJqFz2St-119" target="Tn2TDSUFa4dQiJqFz2St-120">
          <mxGeometry width="50" height="50" relative="1" as="geometry">
            <mxPoint y="10" as="sourcePoint" />
            <mxPoint x="50" y="-40" as="targetPoint" />
          </mxGeometry>
        </mxCell>
        <mxCell id="Tn2TDSUFa4dQiJqFz2St-124" value="0р." style="text;html=1;strokeColor=none;fillColor=none;align=center;verticalAlign=middle;whiteSpace=wrap;rounded=0;" vertex="1" parent="Tn2TDSUFa4dQiJqFz2St-119">
          <mxGeometry width="30" height="10" as="geometry" />
        </mxCell>
        <mxCell id="Tn2TDSUFa4dQiJqFz2St-126" value="А 4.1.8" style="text;html=1;strokeColor=none;fillColor=none;align=center;verticalAlign=middle;whiteSpace=wrap;rounded=0;" vertex="1" parent="Tn2TDSUFa4dQiJqFz2St-119">
          <mxGeometry y="60" width="60" height="20" as="geometry" />
        </mxCell>
        <mxCell id="Tn2TDSUFa4dQiJqFz2St-127" value="Ответ на запрос пользователя" style="text;html=1;strokeColor=none;fillColor=none;align=center;verticalAlign=middle;whiteSpace=wrap;rounded=0;" vertex="1" parent="Tn2TDSUFa4dQiJqFz2St-119">
          <mxGeometry y="10" width="120" height="50" as="geometry" />
        </mxCell>
        <mxCell id="Tn2TDSUFa4dQiJqFz2St-190" value="" style="group" vertex="1" connectable="0" parent="1">
          <mxGeometry x="70" y="560" width="50" height="40" as="geometry" />
        </mxCell>
        <mxCell id="Tn2TDSUFa4dQiJqFz2St-191" value="" style="rounded=0;whiteSpace=wrap;html=1;" vertex="1" parent="Tn2TDSUFa4dQiJqFz2St-190">
          <mxGeometry width="50" height="40" as="geometry" />
        </mxCell>
        <mxCell id="Tn2TDSUFa4dQiJqFz2St-192" value="" style="endArrow=none;html=1;rounded=0;entryX=0.25;entryY=0;entryDx=0;entryDy=0;exitX=0.25;exitY=1;exitDx=0;exitDy=0;" edge="1" parent="Tn2TDSUFa4dQiJqFz2St-190" source="Tn2TDSUFa4dQiJqFz2St-191" target="Tn2TDSUFa4dQiJqFz2St-191">
          <mxGeometry width="50" height="50" relative="1" as="geometry">
            <mxPoint x="10" y="40" as="sourcePoint" />
            <mxPoint x="20" y="10" as="targetPoint" />
          </mxGeometry>
        </mxCell>
        <mxCell id="Tn2TDSUFa4dQiJqFz2St-193" value="&lt;font style=&quot;font-size: 14px;&quot;&gt;&lt;b&gt;Х&lt;/b&gt;&lt;/font&gt;" style="text;html=1;strokeColor=none;fillColor=none;align=center;verticalAlign=middle;whiteSpace=wrap;rounded=0;" vertex="1" parent="Tn2TDSUFa4dQiJqFz2St-190">
          <mxGeometry x="10" y="5" width="30" height="30" as="geometry" />
        </mxCell>
        <mxCell id="Tn2TDSUFa4dQiJqFz2St-194" value="" style="endArrow=classic;html=1;rounded=0;" edge="1" parent="1">
          <mxGeometry width="50" height="50" relative="1" as="geometry">
            <mxPoint x="120" y="580" as="sourcePoint" />
            <mxPoint x="220" y="580" as="targetPoint" />
          </mxGeometry>
        </mxCell>
        <mxCell id="Tn2TDSUFa4dQiJqFz2St-195" value="Разработка&lt;br&gt;завершена" style="edgeLabel;html=1;align=center;verticalAlign=middle;resizable=0;points=[];" vertex="1" connectable="0" parent="Tn2TDSUFa4dQiJqFz2St-194">
          <mxGeometry x="0.3847" y="-3" relative="1" as="geometry">
            <mxPoint x="-29" y="-3" as="offset" />
          </mxGeometry>
        </mxCell>
        <mxCell id="Tn2TDSUFa4dQiJqFz2St-196" value="&lt;b&gt;&lt;font style=&quot;font-size: 14px;&quot;&gt;J1&lt;/font&gt;&lt;/b&gt;" style="text;html=1;strokeColor=none;fillColor=none;align=center;verticalAlign=middle;whiteSpace=wrap;rounded=0;" vertex="1" parent="1">
          <mxGeometry x="120" y="240" width="30" height="20" as="geometry" />
        </mxCell>
        <mxCell id="Tn2TDSUFa4dQiJqFz2St-197" value="&lt;b&gt;&lt;font style=&quot;font-size: 14px;&quot;&gt;J2&lt;/font&gt;&lt;/b&gt;" style="text;html=1;strokeColor=none;fillColor=none;align=center;verticalAlign=middle;whiteSpace=wrap;rounded=0;" vertex="1" parent="1">
          <mxGeometry x="370" y="150" width="30" height="20" as="geometry" />
        </mxCell>
        <mxCell id="Tn2TDSUFa4dQiJqFz2St-198" value="&lt;b&gt;&lt;font style=&quot;font-size: 14px;&quot;&gt;J3&lt;/font&gt;&lt;/b&gt;" style="text;html=1;strokeColor=none;fillColor=none;align=center;verticalAlign=middle;whiteSpace=wrap;rounded=0;" vertex="1" parent="1">
          <mxGeometry x="510" y="190" width="30" height="20" as="geometry" />
        </mxCell>
        <mxCell id="Tn2TDSUFa4dQiJqFz2St-202" value="&lt;b&gt;&lt;font style=&quot;font-size: 14px;&quot;&gt;J5&lt;/font&gt;&lt;/b&gt;" style="text;html=1;strokeColor=none;fillColor=none;align=center;verticalAlign=middle;whiteSpace=wrap;rounded=0;" vertex="1" parent="1">
          <mxGeometry x="110" y="600" width="30" height="20" as="geometry" />
        </mxCell>
        <mxCell id="Tn2TDSUFa4dQiJqFz2St-207" style="edgeStyle=orthogonalEdgeStyle;rounded=0;orthogonalLoop=1;jettySize=auto;html=1;exitX=0.25;exitY=1;exitDx=0;exitDy=0;entryX=0.71;entryY=-0.162;entryDx=0;entryDy=0;entryPerimeter=0;" edge="1" parent="1" source="Tn2TDSUFa4dQiJqFz2St-2" target="Tn2TDSUFa4dQiJqFz2St-14">
          <mxGeometry relative="1" as="geometry" />
        </mxCell>
        <mxCell id="Tn2TDSUFa4dQiJqFz2St-208" style="edgeStyle=orthogonalEdgeStyle;rounded=0;orthogonalLoop=1;jettySize=auto;html=1;exitX=0.5;exitY=1;exitDx=0;exitDy=0;entryX=1;entryY=0;entryDx=0;entryDy=0;" edge="1" parent="1" source="Tn2TDSUFa4dQiJqFz2St-22" target="Tn2TDSUFa4dQiJqFz2St-29">
          <mxGeometry relative="1" as="geometry" />
        </mxCell>
        <mxCell id="Tn2TDSUFa4dQiJqFz2St-210" value="" style="group" vertex="1" connectable="0" parent="1">
          <mxGeometry x="450" y="340" width="50" height="40" as="geometry" />
        </mxCell>
        <mxCell id="Tn2TDSUFa4dQiJqFz2St-211" value="" style="rounded=0;whiteSpace=wrap;html=1;" vertex="1" parent="Tn2TDSUFa4dQiJqFz2St-210">
          <mxGeometry width="50" height="40" as="geometry" />
        </mxCell>
        <mxCell id="Tn2TDSUFa4dQiJqFz2St-212" value="" style="endArrow=none;html=1;rounded=0;entryX=0.25;entryY=0;entryDx=0;entryDy=0;exitX=0.25;exitY=1;exitDx=0;exitDy=0;" edge="1" parent="Tn2TDSUFa4dQiJqFz2St-210" source="Tn2TDSUFa4dQiJqFz2St-211" target="Tn2TDSUFa4dQiJqFz2St-211">
          <mxGeometry width="50" height="50" relative="1" as="geometry">
            <mxPoint x="10" y="40" as="sourcePoint" />
            <mxPoint x="20" y="10" as="targetPoint" />
          </mxGeometry>
        </mxCell>
        <mxCell id="Tn2TDSUFa4dQiJqFz2St-213" value="&lt;font style=&quot;font-size: 14px;&quot;&gt;&lt;b&gt;&amp;amp;&lt;/b&gt;&lt;/font&gt;" style="text;html=1;strokeColor=none;fillColor=none;align=center;verticalAlign=middle;whiteSpace=wrap;rounded=0;" vertex="1" parent="Tn2TDSUFa4dQiJqFz2St-210">
          <mxGeometry x="10" y="5" width="30" height="30" as="geometry" />
        </mxCell>
        <mxCell id="Tn2TDSUFa4dQiJqFz2St-214" style="edgeStyle=orthogonalEdgeStyle;rounded=0;orthogonalLoop=1;jettySize=auto;html=1;exitX=0.5;exitY=1;exitDx=0;exitDy=0;entryX=0;entryY=0.5;entryDx=0;entryDy=0;" edge="1" parent="1" source="Tn2TDSUFa4dQiJqFz2St-78" target="Tn2TDSUFa4dQiJqFz2St-211">
          <mxGeometry relative="1" as="geometry" />
        </mxCell>
        <mxCell id="Tn2TDSUFa4dQiJqFz2St-215" style="edgeStyle=orthogonalEdgeStyle;rounded=0;orthogonalLoop=1;jettySize=auto;html=1;exitX=1;exitY=1;exitDx=0;exitDy=0;entryX=1;entryY=0.5;entryDx=0;entryDy=0;" edge="1" parent="1" source="Tn2TDSUFa4dQiJqFz2St-85" target="Tn2TDSUFa4dQiJqFz2St-211">
          <mxGeometry relative="1" as="geometry" />
        </mxCell>
        <mxCell id="Tn2TDSUFa4dQiJqFz2St-217" style="edgeStyle=orthogonalEdgeStyle;rounded=0;orthogonalLoop=1;jettySize=auto;html=1;entryX=0.5;entryY=0;entryDx=0;entryDy=0;" edge="1" parent="1" source="Tn2TDSUFa4dQiJqFz2St-211" target="Tn2TDSUFa4dQiJqFz2St-33">
          <mxGeometry relative="1" as="geometry" />
        </mxCell>
        <mxCell id="Tn2TDSUFa4dQiJqFz2St-218" value="&lt;b&gt;&lt;font style=&quot;font-size: 14px;&quot;&gt;J4&lt;/font&gt;&lt;/b&gt;" style="text;html=1;strokeColor=none;fillColor=none;align=center;verticalAlign=middle;whiteSpace=wrap;rounded=0;" vertex="1" parent="1">
          <mxGeometry x="490" y="380" width="30" height="20" as="geometry" />
        </mxCell>
        <mxCell id="Tn2TDSUFa4dQiJqFz2St-220" value="" style="edgeStyle=orthogonalEdgeStyle;rounded=0;orthogonalLoop=1;jettySize=auto;html=1;" edge="1" parent="1" source="Tn2TDSUFa4dQiJqFz2St-39" target="Tn2TDSUFa4dQiJqFz2St-127">
          <mxGeometry relative="1" as="geometry" />
        </mxCell>
        <mxCell id="Tn2TDSUFa4dQiJqFz2St-221" value="" style="edgeStyle=orthogonalEdgeStyle;rounded=0;orthogonalLoop=1;jettySize=auto;html=1;" edge="1" parent="1" source="Tn2TDSUFa4dQiJqFz2St-127" target="Tn2TDSUFa4dQiJqFz2St-118">
          <mxGeometry relative="1" as="geometry" />
        </mxCell>
        <mxCell id="Tn2TDSUFa4dQiJqFz2St-224" style="edgeStyle=orthogonalEdgeStyle;rounded=0;orthogonalLoop=1;jettySize=auto;html=1;entryX=0.25;entryY=0;entryDx=0;entryDy=0;" edge="1" parent="1" source="Tn2TDSUFa4dQiJqFz2St-117" target="Tn2TDSUFa4dQiJqFz2St-191">
          <mxGeometry relative="1" as="geometry" />
        </mxCell>
      </root>
    </mxGraphModel>
  </diagram>
</mxfile>
